<svg xmlns="http://www.w3.org/2000/svg" viewBox="0 0 32 32" id="class-schedule"><defs><linearGradient id="a" x1="7.204" x2="24.796" y1="31.736" y2="1.264" gradientUnits="userSpaceOnUse"><stop offset="0" stop-color="#3cacb6"></stop><stop offset="1" stop-color="#8ccead"></stop></linearGradient></defs><path fill="url(#a)" d="M27,3h-2v-1c0-.553-.447-1-1-1s-1,.447-1,1v1H9v-1c0-.553-.447-1-1-1s-1,.447-1,1v1h-2c-1.654,0-3,1.346-3,3V27c0,1.654,1.346,3,3,3H27c1.654,0,3-1.346,3-3V6c0-1.654-1.346-3-3-3Zm1,24c0,.552-.448,1-1,1H5c-.552,0-1-.448-1-1V11H28V27Zm0-18H4v-3c0-.552,.448-1,1-1h2v1c0,.553,.447,1,1,1s1-.447,1-1v-1h14v1c0,.553,.447,1,1,1s1-.447,1-1v-1h2c.552,0,1,.448,1,1v3ZM8.735,19.479l2.265,.899v3.693c0,.369,.203,.708,.529,.882,1.731,.924,3.387,1.118,4.471,1.118,1.967,0,3.517-.608,4.472-1.118,.325-.174,.528-.513,.528-.882v-3.692l1.5-.596v3.288c0,.553,.447,1,1,1s1-.447,1-1v-5c0-.014-.008-.026-.008-.04,.035-.151,.069-.302,.07-.462,0-.848-.509-1.598-1.297-1.912l-6.505-2.583c-.491-.196-1.031-.193-1.519,0l-6.507,2.585c-.787,.313-1.296,1.063-1.296,1.911,0,.848,.51,1.598,1.297,1.91Zm10.265,3.966c-.746,.325-1.77,.626-3,.626-.744,0-1.83-.116-3-.626v-2.272l2.24,.89c.245,.098,.503,.146,.76,.146s.515-.049,.759-.146l2.241-.89v2.272Zm-9.526-5.929l6.507-2.585c.006-.002,.013-.004,.02-.004s.014,.002,.02,.004l6.507,2.585v.104l-6.547,2.584-6.506-2.584v-.104Z"></path></svg>